%TF.GenerationSoftware,KiCad,Pcbnew,7.0.6*%
%TF.CreationDate,2023-07-23T12:18:23-05:00*%
%TF.ProjectId,nes_audio_expansion,6e65735f-6175-4646-996f-5f657870616e,rev?*%
%TF.SameCoordinates,Original*%
%TF.FileFunction,Drillmap*%
%TF.FilePolarity,Positive*%
%FSLAX45Y45*%
G04 Gerber Fmt 4.5, Leading zero omitted, Abs format (unit mm)*
G04 Created by KiCad (PCBNEW 7.0.6) date 2023-07-23 12:18:23*
%MOMM*%
%LPD*%
G01*
G04 APERTURE LIST*
%ADD10C,0.100000*%
%ADD11C,0.200000*%
G04 APERTURE END LIST*
D10*
X14833600Y-11010900D02*
X14833600Y-11023600D01*
X12865100Y-11013440D02*
X14833600Y-11010900D01*
X14833600Y-11084560D02*
X14833600Y-11023600D01*
X14833600Y-11379200D02*
X14833600Y-11084560D01*
X12865100Y-11036300D02*
X12865100Y-11013440D01*
X14833600Y-11582400D02*
X14820900Y-11582400D01*
X14833600Y-11379200D02*
X14833600Y-11582400D01*
X12865100Y-11582400D02*
X14820900Y-11582400D01*
X12865100Y-11430000D02*
X12865100Y-11582400D01*
X12865100Y-11430000D02*
X12865100Y-11036300D01*
D11*
D10*
X12911620Y-11380000D02*
X13011620Y-11480000D01*
X13011620Y-11380000D02*
X12911620Y-11480000D01*
X13165620Y-11380000D02*
X13265620Y-11480000D01*
X13265620Y-11380000D02*
X13165620Y-11480000D01*
X13419620Y-11380000D02*
X13519620Y-11480000D01*
X13519620Y-11380000D02*
X13419620Y-11480000D01*
X13673620Y-11380000D02*
X13773620Y-11480000D01*
X13773620Y-11380000D02*
X13673620Y-11480000D01*
X13927620Y-11380000D02*
X14027620Y-11480000D01*
X14027620Y-11380000D02*
X13927620Y-11480000D01*
X14181620Y-11380000D02*
X14281620Y-11480000D01*
X14281620Y-11380000D02*
X14181620Y-11480000D01*
X14435620Y-11380000D02*
X14535620Y-11480000D01*
X14535620Y-11380000D02*
X14435620Y-11480000D01*
X14689620Y-11380000D02*
X14789620Y-11480000D01*
X14789620Y-11380000D02*
X14689620Y-11480000D01*
D11*
X13120877Y-11898884D02*
X13120877Y-11698884D01*
X13120877Y-11698884D02*
X13168496Y-11698884D01*
X13168496Y-11698884D02*
X13197067Y-11708408D01*
X13197067Y-11708408D02*
X13216115Y-11727455D01*
X13216115Y-11727455D02*
X13225639Y-11746503D01*
X13225639Y-11746503D02*
X13235162Y-11784598D01*
X13235162Y-11784598D02*
X13235162Y-11813169D01*
X13235162Y-11813169D02*
X13225639Y-11851265D01*
X13225639Y-11851265D02*
X13216115Y-11870312D01*
X13216115Y-11870312D02*
X13197067Y-11889360D01*
X13197067Y-11889360D02*
X13168496Y-11898884D01*
X13168496Y-11898884D02*
X13120877Y-11898884D01*
X13320877Y-11898884D02*
X13320877Y-11765550D01*
X13320877Y-11803646D02*
X13330401Y-11784598D01*
X13330401Y-11784598D02*
X13339924Y-11775074D01*
X13339924Y-11775074D02*
X13358972Y-11765550D01*
X13358972Y-11765550D02*
X13378020Y-11765550D01*
X13444686Y-11898884D02*
X13444686Y-11765550D01*
X13444686Y-11698884D02*
X13435162Y-11708408D01*
X13435162Y-11708408D02*
X13444686Y-11717931D01*
X13444686Y-11717931D02*
X13454210Y-11708408D01*
X13454210Y-11708408D02*
X13444686Y-11698884D01*
X13444686Y-11698884D02*
X13444686Y-11717931D01*
X13568496Y-11898884D02*
X13549448Y-11889360D01*
X13549448Y-11889360D02*
X13539924Y-11870312D01*
X13539924Y-11870312D02*
X13539924Y-11698884D01*
X13673258Y-11898884D02*
X13654210Y-11889360D01*
X13654210Y-11889360D02*
X13644686Y-11870312D01*
X13644686Y-11870312D02*
X13644686Y-11698884D01*
X13901829Y-11898884D02*
X13901829Y-11698884D01*
X13901829Y-11698884D02*
X13968496Y-11841741D01*
X13968496Y-11841741D02*
X14035162Y-11698884D01*
X14035162Y-11698884D02*
X14035162Y-11898884D01*
X14216115Y-11898884D02*
X14216115Y-11794122D01*
X14216115Y-11794122D02*
X14206591Y-11775074D01*
X14206591Y-11775074D02*
X14187543Y-11765550D01*
X14187543Y-11765550D02*
X14149448Y-11765550D01*
X14149448Y-11765550D02*
X14130401Y-11775074D01*
X14216115Y-11889360D02*
X14197067Y-11898884D01*
X14197067Y-11898884D02*
X14149448Y-11898884D01*
X14149448Y-11898884D02*
X14130401Y-11889360D01*
X14130401Y-11889360D02*
X14120877Y-11870312D01*
X14120877Y-11870312D02*
X14120877Y-11851265D01*
X14120877Y-11851265D02*
X14130401Y-11832217D01*
X14130401Y-11832217D02*
X14149448Y-11822693D01*
X14149448Y-11822693D02*
X14197067Y-11822693D01*
X14197067Y-11822693D02*
X14216115Y-11813169D01*
X14311353Y-11765550D02*
X14311353Y-11965550D01*
X14311353Y-11775074D02*
X14330401Y-11765550D01*
X14330401Y-11765550D02*
X14368496Y-11765550D01*
X14368496Y-11765550D02*
X14387543Y-11775074D01*
X14387543Y-11775074D02*
X14397067Y-11784598D01*
X14397067Y-11784598D02*
X14406591Y-11803646D01*
X14406591Y-11803646D02*
X14406591Y-11860788D01*
X14406591Y-11860788D02*
X14397067Y-11879836D01*
X14397067Y-11879836D02*
X14387543Y-11889360D01*
X14387543Y-11889360D02*
X14368496Y-11898884D01*
X14368496Y-11898884D02*
X14330401Y-11898884D01*
X14330401Y-11898884D02*
X14311353Y-11889360D01*
X14492305Y-11879836D02*
X14501829Y-11889360D01*
X14501829Y-11889360D02*
X14492305Y-11898884D01*
X14492305Y-11898884D02*
X14482782Y-11889360D01*
X14482782Y-11889360D02*
X14492305Y-11879836D01*
X14492305Y-11879836D02*
X14492305Y-11898884D01*
X14492305Y-11775074D02*
X14501829Y-11784598D01*
X14501829Y-11784598D02*
X14492305Y-11794122D01*
X14492305Y-11794122D02*
X14482782Y-11784598D01*
X14482782Y-11784598D02*
X14492305Y-11775074D01*
X14492305Y-11775074D02*
X14492305Y-11794122D01*
D10*
X12760100Y-12177400D02*
X12860100Y-12277400D01*
X12860100Y-12177400D02*
X12760100Y-12277400D01*
D11*
X13225639Y-12318884D02*
X13111353Y-12318884D01*
X13168496Y-12318884D02*
X13168496Y-12118884D01*
X13168496Y-12118884D02*
X13149448Y-12147455D01*
X13149448Y-12147455D02*
X13130401Y-12166503D01*
X13130401Y-12166503D02*
X13111353Y-12176027D01*
X13311353Y-12299836D02*
X13320877Y-12309360D01*
X13320877Y-12309360D02*
X13311353Y-12318884D01*
X13311353Y-12318884D02*
X13301829Y-12309360D01*
X13301829Y-12309360D02*
X13311353Y-12299836D01*
X13311353Y-12299836D02*
X13311353Y-12318884D01*
X13444686Y-12118884D02*
X13463734Y-12118884D01*
X13463734Y-12118884D02*
X13482782Y-12128408D01*
X13482782Y-12128408D02*
X13492305Y-12137931D01*
X13492305Y-12137931D02*
X13501829Y-12156979D01*
X13501829Y-12156979D02*
X13511353Y-12195074D01*
X13511353Y-12195074D02*
X13511353Y-12242693D01*
X13511353Y-12242693D02*
X13501829Y-12280788D01*
X13501829Y-12280788D02*
X13492305Y-12299836D01*
X13492305Y-12299836D02*
X13482782Y-12309360D01*
X13482782Y-12309360D02*
X13463734Y-12318884D01*
X13463734Y-12318884D02*
X13444686Y-12318884D01*
X13444686Y-12318884D02*
X13425639Y-12309360D01*
X13425639Y-12309360D02*
X13416115Y-12299836D01*
X13416115Y-12299836D02*
X13406591Y-12280788D01*
X13406591Y-12280788D02*
X13397067Y-12242693D01*
X13397067Y-12242693D02*
X13397067Y-12195074D01*
X13397067Y-12195074D02*
X13406591Y-12156979D01*
X13406591Y-12156979D02*
X13416115Y-12137931D01*
X13416115Y-12137931D02*
X13425639Y-12128408D01*
X13425639Y-12128408D02*
X13444686Y-12118884D01*
X13635162Y-12118884D02*
X13654210Y-12118884D01*
X13654210Y-12118884D02*
X13673258Y-12128408D01*
X13673258Y-12128408D02*
X13682782Y-12137931D01*
X13682782Y-12137931D02*
X13692305Y-12156979D01*
X13692305Y-12156979D02*
X13701829Y-12195074D01*
X13701829Y-12195074D02*
X13701829Y-12242693D01*
X13701829Y-12242693D02*
X13692305Y-12280788D01*
X13692305Y-12280788D02*
X13682782Y-12299836D01*
X13682782Y-12299836D02*
X13673258Y-12309360D01*
X13673258Y-12309360D02*
X13654210Y-12318884D01*
X13654210Y-12318884D02*
X13635162Y-12318884D01*
X13635162Y-12318884D02*
X13616115Y-12309360D01*
X13616115Y-12309360D02*
X13606591Y-12299836D01*
X13606591Y-12299836D02*
X13597067Y-12280788D01*
X13597067Y-12280788D02*
X13587543Y-12242693D01*
X13587543Y-12242693D02*
X13587543Y-12195074D01*
X13587543Y-12195074D02*
X13597067Y-12156979D01*
X13597067Y-12156979D02*
X13606591Y-12137931D01*
X13606591Y-12137931D02*
X13616115Y-12128408D01*
X13616115Y-12128408D02*
X13635162Y-12118884D01*
X13825639Y-12118884D02*
X13844686Y-12118884D01*
X13844686Y-12118884D02*
X13863734Y-12128408D01*
X13863734Y-12128408D02*
X13873258Y-12137931D01*
X13873258Y-12137931D02*
X13882782Y-12156979D01*
X13882782Y-12156979D02*
X13892305Y-12195074D01*
X13892305Y-12195074D02*
X13892305Y-12242693D01*
X13892305Y-12242693D02*
X13882782Y-12280788D01*
X13882782Y-12280788D02*
X13873258Y-12299836D01*
X13873258Y-12299836D02*
X13863734Y-12309360D01*
X13863734Y-12309360D02*
X13844686Y-12318884D01*
X13844686Y-12318884D02*
X13825639Y-12318884D01*
X13825639Y-12318884D02*
X13806591Y-12309360D01*
X13806591Y-12309360D02*
X13797067Y-12299836D01*
X13797067Y-12299836D02*
X13787543Y-12280788D01*
X13787543Y-12280788D02*
X13778020Y-12242693D01*
X13778020Y-12242693D02*
X13778020Y-12195074D01*
X13778020Y-12195074D02*
X13787543Y-12156979D01*
X13787543Y-12156979D02*
X13797067Y-12137931D01*
X13797067Y-12137931D02*
X13806591Y-12128408D01*
X13806591Y-12128408D02*
X13825639Y-12118884D01*
X13978020Y-12318884D02*
X13978020Y-12185550D01*
X13978020Y-12204598D02*
X13987543Y-12195074D01*
X13987543Y-12195074D02*
X14006591Y-12185550D01*
X14006591Y-12185550D02*
X14035163Y-12185550D01*
X14035163Y-12185550D02*
X14054210Y-12195074D01*
X14054210Y-12195074D02*
X14063734Y-12214122D01*
X14063734Y-12214122D02*
X14063734Y-12318884D01*
X14063734Y-12214122D02*
X14073258Y-12195074D01*
X14073258Y-12195074D02*
X14092305Y-12185550D01*
X14092305Y-12185550D02*
X14120877Y-12185550D01*
X14120877Y-12185550D02*
X14139924Y-12195074D01*
X14139924Y-12195074D02*
X14149448Y-12214122D01*
X14149448Y-12214122D02*
X14149448Y-12318884D01*
X14244686Y-12318884D02*
X14244686Y-12185550D01*
X14244686Y-12204598D02*
X14254210Y-12195074D01*
X14254210Y-12195074D02*
X14273258Y-12185550D01*
X14273258Y-12185550D02*
X14301829Y-12185550D01*
X14301829Y-12185550D02*
X14320877Y-12195074D01*
X14320877Y-12195074D02*
X14330401Y-12214122D01*
X14330401Y-12214122D02*
X14330401Y-12318884D01*
X14330401Y-12214122D02*
X14339924Y-12195074D01*
X14339924Y-12195074D02*
X14358972Y-12185550D01*
X14358972Y-12185550D02*
X14387543Y-12185550D01*
X14387543Y-12185550D02*
X14406591Y-12195074D01*
X14406591Y-12195074D02*
X14416115Y-12214122D01*
X14416115Y-12214122D02*
X14416115Y-12318884D01*
X14806591Y-12109360D02*
X14635163Y-12366503D01*
X15063734Y-12118884D02*
X15082782Y-12118884D01*
X15082782Y-12118884D02*
X15101829Y-12128408D01*
X15101829Y-12128408D02*
X15111353Y-12137931D01*
X15111353Y-12137931D02*
X15120877Y-12156979D01*
X15120877Y-12156979D02*
X15130401Y-12195074D01*
X15130401Y-12195074D02*
X15130401Y-12242693D01*
X15130401Y-12242693D02*
X15120877Y-12280788D01*
X15120877Y-12280788D02*
X15111353Y-12299836D01*
X15111353Y-12299836D02*
X15101829Y-12309360D01*
X15101829Y-12309360D02*
X15082782Y-12318884D01*
X15082782Y-12318884D02*
X15063734Y-12318884D01*
X15063734Y-12318884D02*
X15044686Y-12309360D01*
X15044686Y-12309360D02*
X15035163Y-12299836D01*
X15035163Y-12299836D02*
X15025639Y-12280788D01*
X15025639Y-12280788D02*
X15016115Y-12242693D01*
X15016115Y-12242693D02*
X15016115Y-12195074D01*
X15016115Y-12195074D02*
X15025639Y-12156979D01*
X15025639Y-12156979D02*
X15035163Y-12137931D01*
X15035163Y-12137931D02*
X15044686Y-12128408D01*
X15044686Y-12128408D02*
X15063734Y-12118884D01*
X15216115Y-12299836D02*
X15225639Y-12309360D01*
X15225639Y-12309360D02*
X15216115Y-12318884D01*
X15216115Y-12318884D02*
X15206591Y-12309360D01*
X15206591Y-12309360D02*
X15216115Y-12299836D01*
X15216115Y-12299836D02*
X15216115Y-12318884D01*
X15349448Y-12118884D02*
X15368496Y-12118884D01*
X15368496Y-12118884D02*
X15387544Y-12128408D01*
X15387544Y-12128408D02*
X15397067Y-12137931D01*
X15397067Y-12137931D02*
X15406591Y-12156979D01*
X15406591Y-12156979D02*
X15416115Y-12195074D01*
X15416115Y-12195074D02*
X15416115Y-12242693D01*
X15416115Y-12242693D02*
X15406591Y-12280788D01*
X15406591Y-12280788D02*
X15397067Y-12299836D01*
X15397067Y-12299836D02*
X15387544Y-12309360D01*
X15387544Y-12309360D02*
X15368496Y-12318884D01*
X15368496Y-12318884D02*
X15349448Y-12318884D01*
X15349448Y-12318884D02*
X15330401Y-12309360D01*
X15330401Y-12309360D02*
X15320877Y-12299836D01*
X15320877Y-12299836D02*
X15311353Y-12280788D01*
X15311353Y-12280788D02*
X15301829Y-12242693D01*
X15301829Y-12242693D02*
X15301829Y-12195074D01*
X15301829Y-12195074D02*
X15311353Y-12156979D01*
X15311353Y-12156979D02*
X15320877Y-12137931D01*
X15320877Y-12137931D02*
X15330401Y-12128408D01*
X15330401Y-12128408D02*
X15349448Y-12118884D01*
X15482782Y-12118884D02*
X15606591Y-12118884D01*
X15606591Y-12118884D02*
X15539925Y-12195074D01*
X15539925Y-12195074D02*
X15568496Y-12195074D01*
X15568496Y-12195074D02*
X15587544Y-12204598D01*
X15587544Y-12204598D02*
X15597067Y-12214122D01*
X15597067Y-12214122D02*
X15606591Y-12233169D01*
X15606591Y-12233169D02*
X15606591Y-12280788D01*
X15606591Y-12280788D02*
X15597067Y-12299836D01*
X15597067Y-12299836D02*
X15587544Y-12309360D01*
X15587544Y-12309360D02*
X15568496Y-12318884D01*
X15568496Y-12318884D02*
X15511353Y-12318884D01*
X15511353Y-12318884D02*
X15492306Y-12309360D01*
X15492306Y-12309360D02*
X15482782Y-12299836D01*
X15701829Y-12318884D02*
X15739925Y-12318884D01*
X15739925Y-12318884D02*
X15758972Y-12309360D01*
X15758972Y-12309360D02*
X15768496Y-12299836D01*
X15768496Y-12299836D02*
X15787544Y-12271265D01*
X15787544Y-12271265D02*
X15797067Y-12233169D01*
X15797067Y-12233169D02*
X15797067Y-12156979D01*
X15797067Y-12156979D02*
X15787544Y-12137931D01*
X15787544Y-12137931D02*
X15778020Y-12128408D01*
X15778020Y-12128408D02*
X15758972Y-12118884D01*
X15758972Y-12118884D02*
X15720877Y-12118884D01*
X15720877Y-12118884D02*
X15701829Y-12128408D01*
X15701829Y-12128408D02*
X15692306Y-12137931D01*
X15692306Y-12137931D02*
X15682782Y-12156979D01*
X15682782Y-12156979D02*
X15682782Y-12204598D01*
X15682782Y-12204598D02*
X15692306Y-12223646D01*
X15692306Y-12223646D02*
X15701829Y-12233169D01*
X15701829Y-12233169D02*
X15720877Y-12242693D01*
X15720877Y-12242693D02*
X15758972Y-12242693D01*
X15758972Y-12242693D02*
X15778020Y-12233169D01*
X15778020Y-12233169D02*
X15787544Y-12223646D01*
X15787544Y-12223646D02*
X15797067Y-12204598D01*
X15968496Y-12185550D02*
X15968496Y-12318884D01*
X15920877Y-12109360D02*
X15873258Y-12252217D01*
X15873258Y-12252217D02*
X15997067Y-12252217D01*
X16063734Y-12118884D02*
X16063734Y-12156979D01*
X16139925Y-12118884D02*
X16139925Y-12156979D01*
X16435163Y-12395074D02*
X16425639Y-12385550D01*
X16425639Y-12385550D02*
X16406591Y-12356979D01*
X16406591Y-12356979D02*
X16397068Y-12337931D01*
X16397068Y-12337931D02*
X16387544Y-12309360D01*
X16387544Y-12309360D02*
X16378020Y-12261741D01*
X16378020Y-12261741D02*
X16378020Y-12223646D01*
X16378020Y-12223646D02*
X16387544Y-12176027D01*
X16387544Y-12176027D02*
X16397068Y-12147455D01*
X16397068Y-12147455D02*
X16406591Y-12128408D01*
X16406591Y-12128408D02*
X16425639Y-12099836D01*
X16425639Y-12099836D02*
X16435163Y-12090312D01*
X16539925Y-12204598D02*
X16520877Y-12195074D01*
X16520877Y-12195074D02*
X16511353Y-12185550D01*
X16511353Y-12185550D02*
X16501829Y-12166503D01*
X16501829Y-12166503D02*
X16501829Y-12156979D01*
X16501829Y-12156979D02*
X16511353Y-12137931D01*
X16511353Y-12137931D02*
X16520877Y-12128408D01*
X16520877Y-12128408D02*
X16539925Y-12118884D01*
X16539925Y-12118884D02*
X16578020Y-12118884D01*
X16578020Y-12118884D02*
X16597068Y-12128408D01*
X16597068Y-12128408D02*
X16606591Y-12137931D01*
X16606591Y-12137931D02*
X16616115Y-12156979D01*
X16616115Y-12156979D02*
X16616115Y-12166503D01*
X16616115Y-12166503D02*
X16606591Y-12185550D01*
X16606591Y-12185550D02*
X16597068Y-12195074D01*
X16597068Y-12195074D02*
X16578020Y-12204598D01*
X16578020Y-12204598D02*
X16539925Y-12204598D01*
X16539925Y-12204598D02*
X16520877Y-12214122D01*
X16520877Y-12214122D02*
X16511353Y-12223646D01*
X16511353Y-12223646D02*
X16501829Y-12242693D01*
X16501829Y-12242693D02*
X16501829Y-12280788D01*
X16501829Y-12280788D02*
X16511353Y-12299836D01*
X16511353Y-12299836D02*
X16520877Y-12309360D01*
X16520877Y-12309360D02*
X16539925Y-12318884D01*
X16539925Y-12318884D02*
X16578020Y-12318884D01*
X16578020Y-12318884D02*
X16597068Y-12309360D01*
X16597068Y-12309360D02*
X16606591Y-12299836D01*
X16606591Y-12299836D02*
X16616115Y-12280788D01*
X16616115Y-12280788D02*
X16616115Y-12242693D01*
X16616115Y-12242693D02*
X16606591Y-12223646D01*
X16606591Y-12223646D02*
X16597068Y-12214122D01*
X16597068Y-12214122D02*
X16578020Y-12204598D01*
X16854211Y-12318884D02*
X16854211Y-12118884D01*
X16939925Y-12318884D02*
X16939925Y-12214122D01*
X16939925Y-12214122D02*
X16930401Y-12195074D01*
X16930401Y-12195074D02*
X16911353Y-12185550D01*
X16911353Y-12185550D02*
X16882782Y-12185550D01*
X16882782Y-12185550D02*
X16863734Y-12195074D01*
X16863734Y-12195074D02*
X16854211Y-12204598D01*
X17063734Y-12318884D02*
X17044687Y-12309360D01*
X17044687Y-12309360D02*
X17035163Y-12299836D01*
X17035163Y-12299836D02*
X17025639Y-12280788D01*
X17025639Y-12280788D02*
X17025639Y-12223646D01*
X17025639Y-12223646D02*
X17035163Y-12204598D01*
X17035163Y-12204598D02*
X17044687Y-12195074D01*
X17044687Y-12195074D02*
X17063734Y-12185550D01*
X17063734Y-12185550D02*
X17092306Y-12185550D01*
X17092306Y-12185550D02*
X17111353Y-12195074D01*
X17111353Y-12195074D02*
X17120877Y-12204598D01*
X17120877Y-12204598D02*
X17130401Y-12223646D01*
X17130401Y-12223646D02*
X17130401Y-12280788D01*
X17130401Y-12280788D02*
X17120877Y-12299836D01*
X17120877Y-12299836D02*
X17111353Y-12309360D01*
X17111353Y-12309360D02*
X17092306Y-12318884D01*
X17092306Y-12318884D02*
X17063734Y-12318884D01*
X17244687Y-12318884D02*
X17225639Y-12309360D01*
X17225639Y-12309360D02*
X17216115Y-12290312D01*
X17216115Y-12290312D02*
X17216115Y-12118884D01*
X17397068Y-12309360D02*
X17378020Y-12318884D01*
X17378020Y-12318884D02*
X17339925Y-12318884D01*
X17339925Y-12318884D02*
X17320877Y-12309360D01*
X17320877Y-12309360D02*
X17311353Y-12290312D01*
X17311353Y-12290312D02*
X17311353Y-12214122D01*
X17311353Y-12214122D02*
X17320877Y-12195074D01*
X17320877Y-12195074D02*
X17339925Y-12185550D01*
X17339925Y-12185550D02*
X17378020Y-12185550D01*
X17378020Y-12185550D02*
X17397068Y-12195074D01*
X17397068Y-12195074D02*
X17406592Y-12214122D01*
X17406592Y-12214122D02*
X17406592Y-12233169D01*
X17406592Y-12233169D02*
X17311353Y-12252217D01*
X17482782Y-12309360D02*
X17501830Y-12318884D01*
X17501830Y-12318884D02*
X17539925Y-12318884D01*
X17539925Y-12318884D02*
X17558973Y-12309360D01*
X17558973Y-12309360D02*
X17568496Y-12290312D01*
X17568496Y-12290312D02*
X17568496Y-12280788D01*
X17568496Y-12280788D02*
X17558973Y-12261741D01*
X17558973Y-12261741D02*
X17539925Y-12252217D01*
X17539925Y-12252217D02*
X17511353Y-12252217D01*
X17511353Y-12252217D02*
X17492306Y-12242693D01*
X17492306Y-12242693D02*
X17482782Y-12223646D01*
X17482782Y-12223646D02*
X17482782Y-12214122D01*
X17482782Y-12214122D02*
X17492306Y-12195074D01*
X17492306Y-12195074D02*
X17511353Y-12185550D01*
X17511353Y-12185550D02*
X17539925Y-12185550D01*
X17539925Y-12185550D02*
X17558973Y-12195074D01*
X17635163Y-12395074D02*
X17644687Y-12385550D01*
X17644687Y-12385550D02*
X17663734Y-12356979D01*
X17663734Y-12356979D02*
X17673258Y-12337931D01*
X17673258Y-12337931D02*
X17682782Y-12309360D01*
X17682782Y-12309360D02*
X17692306Y-12261741D01*
X17692306Y-12261741D02*
X17692306Y-12223646D01*
X17692306Y-12223646D02*
X17682782Y-12176027D01*
X17682782Y-12176027D02*
X17673258Y-12147455D01*
X17673258Y-12147455D02*
X17663734Y-12128408D01*
X17663734Y-12128408D02*
X17644687Y-12099836D01*
X17644687Y-12099836D02*
X17635163Y-12090312D01*
M02*
