%TF.GenerationSoftware,KiCad,Pcbnew,7.0.6*%
%TF.CreationDate,2023-07-25T17:46:21-05:00*%
%TF.ProjectId,nes_audio_expansion,6e65735f-6175-4646-996f-5f657870616e,rev?*%
%TF.SameCoordinates,Original*%
%TF.FileFunction,Copper,L1,Top*%
%TF.FilePolarity,Positive*%
%FSLAX46Y46*%
G04 Gerber Fmt 4.6, Leading zero omitted, Abs format (unit mm)*
G04 Created by KiCad (PCBNEW 7.0.6) date 2023-07-25 17:46:21*
%MOMM*%
%LPD*%
G01*
G04 APERTURE LIST*
G04 Aperture macros list*
%AMRoundRect*
0 Rectangle with rounded corners*
0 $1 Rounding radius*
0 $2 $3 $4 $5 $6 $7 $8 $9 X,Y pos of 4 corners*
0 Add a 4 corners polygon primitive as box body*
4,1,4,$2,$3,$4,$5,$6,$7,$8,$9,$2,$3,0*
0 Add four circle primitives for the rounded corners*
1,1,$1+$1,$2,$3*
1,1,$1+$1,$4,$5*
1,1,$1+$1,$6,$7*
1,1,$1+$1,$8,$9*
0 Add four rect primitives between the rounded corners*
20,1,$1+$1,$2,$3,$4,$5,0*
20,1,$1+$1,$4,$5,$6,$7,0*
20,1,$1+$1,$6,$7,$8,$9,0*
20,1,$1+$1,$8,$9,$2,$3,0*%
G04 Aperture macros list end*
%TA.AperFunction,SMDPad,CuDef*%
%ADD10RoundRect,0.250000X0.262500X0.450000X-0.262500X0.450000X-0.262500X-0.450000X0.262500X-0.450000X0*%
%TD*%
%TA.AperFunction,ComponentPad*%
%ADD11C,1.700000*%
%TD*%
%TA.AperFunction,ComponentPad*%
%ADD12O,0.100000X0.100000*%
%TD*%
%TA.AperFunction,ComponentPad*%
%ADD13O,1.700000X1.700000*%
%TD*%
%TA.AperFunction,SMDPad,CuDef*%
%ADD14RoundRect,0.250000X-0.262500X-0.450000X0.262500X-0.450000X0.262500X0.450000X-0.262500X0.450000X0*%
%TD*%
%TA.AperFunction,SMDPad,CuDef*%
%ADD15R,1.500000X1.500000*%
%TD*%
%TA.AperFunction,Conductor*%
%ADD16C,0.250000*%
%TD*%
G04 APERTURE END LIST*
D10*
%TO.P,R1,1*%
%TO.N,Net-(J1-9)*%
X136853300Y-111506000D03*
%TO.P,R1,2*%
%TO.N,Net-(J1-2)*%
X135028300Y-111506000D03*
%TD*%
D11*
%TO.P,J1,1,2*%
%TO.N,Net-(J1-2)*%
X129616200Y-114300000D03*
D12*
%TO.P,J1,2,3*%
%TO.N,unconnected-(J1-3-Pad2)*%
X132156200Y-114300000D03*
%TO.P,J1,3,4*%
%TO.N,unconnected-(J1-4-Pad3)*%
X134696200Y-114300000D03*
%TO.P,J1,4,5*%
%TO.N,unconnected-(J1-5-Pad4)*%
X137236200Y-114300000D03*
%TO.P,J1,5,6*%
%TO.N,unconnected-(J1-6-Pad5)*%
X139776200Y-114300000D03*
%TO.P,J1,6,7*%
%TO.N,unconnected-(J1-7-Pad6)*%
X142316200Y-114300000D03*
%TO.P,J1,7,8*%
%TO.N,unconnected-(J1-8-Pad7)*%
X144856200Y-114300000D03*
D13*
%TO.P,J1,8,9*%
%TO.N,Net-(J1-9)*%
X147396200Y-114300000D03*
%TD*%
D14*
%TO.P,R2,1*%
%TO.N,Net-(J2-Pin_1)*%
X141835500Y-111506000D03*
%TO.P,R2,2*%
%TO.N,Net-(J1-9)*%
X143660500Y-111506000D03*
%TD*%
D15*
%TO.P,J2,1,Pin_1*%
%TO.N,Net-(J2-Pin_1)*%
X129768600Y-111480600D03*
%TD*%
D16*
%TO.N,Net-(J1-2)*%
X135028300Y-111506000D02*
X132410200Y-111506000D01*
X132410200Y-111506000D02*
X129616200Y-114300000D01*
%TO.N,Net-(J1-9)*%
X143660500Y-111914300D02*
X143660500Y-111506000D01*
X140106400Y-112826800D02*
X142748000Y-112826800D01*
X144602200Y-111506000D02*
X147396200Y-114300000D01*
X138785600Y-111506000D02*
X140106400Y-112826800D01*
X136853300Y-111506000D02*
X138785600Y-111506000D01*
X142748000Y-112826800D02*
X143660500Y-111914300D01*
X143660500Y-111506000D02*
X144602200Y-111506000D01*
%TO.N,Net-(J2-Pin_1)*%
X129768600Y-111480600D02*
X130768200Y-110481000D01*
X140810500Y-110481000D02*
X141835500Y-111506000D01*
X130768200Y-110481000D02*
X140810500Y-110481000D01*
%TD*%
%TA.AperFunction,NonConductor*%
G36*
X131692787Y-111126185D02*
G01*
X131738542Y-111178989D01*
X131748486Y-111248147D01*
X131719461Y-111311703D01*
X131713435Y-111318174D01*
X131472104Y-111559504D01*
X131230780Y-111800828D01*
X131169457Y-111834313D01*
X131099765Y-111829329D01*
X131043832Y-111787457D01*
X131019415Y-111721993D01*
X131019099Y-111713147D01*
X131019099Y-111230500D01*
X131038784Y-111163461D01*
X131091588Y-111117706D01*
X131143099Y-111106500D01*
X131625748Y-111106500D01*
X131692787Y-111126185D01*
G37*
%TD.AperFunction*%
%TA.AperFunction,NonConductor*%
G36*
X140567087Y-111126185D02*
G01*
X140587729Y-111142819D01*
X140786181Y-111341271D01*
X140819666Y-111402594D01*
X140822500Y-111428952D01*
X140822500Y-112006001D01*
X140822501Y-112006019D01*
X140828496Y-112064699D01*
X140815726Y-112133392D01*
X140767845Y-112184276D01*
X140705138Y-112201300D01*
X140416853Y-112201300D01*
X140349814Y-112181615D01*
X140329172Y-112164981D01*
X139482372Y-111318181D01*
X139448887Y-111256858D01*
X139453871Y-111187166D01*
X139495743Y-111131233D01*
X139561207Y-111106816D01*
X139570053Y-111106500D01*
X140500048Y-111106500D01*
X140567087Y-111126185D01*
G37*
%TD.AperFunction*%
%TA.AperFunction,NonConductor*%
G36*
X148027493Y-110349683D02*
G01*
X148094481Y-110369541D01*
X148140099Y-110422463D01*
X148151166Y-110472502D01*
X148175021Y-112977238D01*
X148155976Y-113044462D01*
X148103610Y-113090718D01*
X148034550Y-113101319D01*
X147998623Y-113090801D01*
X147859869Y-113026099D01*
X147859855Y-113026094D01*
X147631613Y-112964938D01*
X147631603Y-112964936D01*
X147396201Y-112944341D01*
X147396199Y-112944341D01*
X147160796Y-112964936D01*
X147160786Y-112964938D01*
X147060326Y-112991856D01*
X146990476Y-112990193D01*
X146940552Y-112959762D01*
X145103003Y-111122212D01*
X145093180Y-111109950D01*
X145092959Y-111110134D01*
X145087986Y-111104123D01*
X145037564Y-111056773D01*
X145027119Y-111046328D01*
X145016675Y-111035883D01*
X145011186Y-111031625D01*
X145006761Y-111027847D01*
X144972782Y-110995938D01*
X144972780Y-110995936D01*
X144972777Y-110995935D01*
X144955229Y-110986288D01*
X144938963Y-110975604D01*
X144923133Y-110963325D01*
X144880368Y-110944818D01*
X144875122Y-110942248D01*
X144834293Y-110919803D01*
X144834292Y-110919802D01*
X144814893Y-110914822D01*
X144796481Y-110908518D01*
X144778098Y-110900562D01*
X144778093Y-110900560D01*
X144741452Y-110894757D01*
X144732061Y-110893270D01*
X144726348Y-110892086D01*
X144723356Y-110891318D01*
X144718640Y-110890107D01*
X144658606Y-110854361D01*
X144631786Y-110809010D01*
X144607814Y-110736666D01*
X144515712Y-110587344D01*
X144480794Y-110552425D01*
X144447309Y-110491103D01*
X144452293Y-110421411D01*
X144494165Y-110365478D01*
X144559629Y-110341061D01*
X144568761Y-110340746D01*
X148027493Y-110349683D01*
G37*
%TD.AperFunction*%
%TA.AperFunction,NonConductor*%
G36*
X128970727Y-112731100D02*
G01*
X129311612Y-112731099D01*
X129378649Y-112750783D01*
X129424404Y-112803587D01*
X129434348Y-112872746D01*
X129405323Y-112936301D01*
X129346545Y-112974076D01*
X129343703Y-112974874D01*
X129152544Y-113026094D01*
X129152535Y-113026098D01*
X128976405Y-113108229D01*
X128907327Y-113118721D01*
X128843543Y-113090201D01*
X128805304Y-113031725D01*
X128800000Y-112995847D01*
X128800000Y-112850790D01*
X128819685Y-112783751D01*
X128872489Y-112737996D01*
X128937255Y-112727501D01*
X128970727Y-112731100D01*
G37*
%TD.AperFunction*%
%TA.AperFunction,NonConductor*%
G36*
X145933715Y-113737784D02*
G01*
X145977795Y-113766185D01*
X146055962Y-113844352D01*
X146089447Y-113905675D01*
X146088056Y-113964126D01*
X146067396Y-114041232D01*
X146031031Y-114100892D01*
X145968185Y-114131422D01*
X145898809Y-114123128D01*
X145844931Y-114078643D01*
X145831340Y-114052205D01*
X145773833Y-113896932D01*
X145769009Y-113827229D01*
X145802635Y-113765983D01*
X145864035Y-113732639D01*
X145933715Y-113737784D01*
G37*
%TD.AperFunction*%
%TA.AperFunction,NonConductor*%
G36*
X131166117Y-113737185D02*
G01*
X131222050Y-113779057D01*
X131246467Y-113844521D01*
X131234112Y-113907974D01*
X131213138Y-113950732D01*
X131187438Y-114049993D01*
X131151578Y-114109959D01*
X131088991Y-114141017D01*
X131019548Y-114133308D01*
X130965297Y-114089279D01*
X130947622Y-114051005D01*
X130946796Y-114047924D01*
X130924342Y-113964125D01*
X130926006Y-113894275D01*
X130956435Y-113844353D01*
X131035104Y-113765684D01*
X131096425Y-113732201D01*
X131166117Y-113737185D01*
G37*
%TD.AperFunction*%
%TA.AperFunction,NonConductor*%
G36*
X134010822Y-112151185D02*
G01*
X134056577Y-112203989D01*
X134061489Y-112216495D01*
X134080986Y-112275333D01*
X134080987Y-112275336D01*
X134115799Y-112331776D01*
X134173088Y-112424656D01*
X134297144Y-112548712D01*
X134446466Y-112640814D01*
X134613003Y-112695999D01*
X134715791Y-112706500D01*
X135340808Y-112706499D01*
X135340816Y-112706498D01*
X135340819Y-112706498D01*
X135397102Y-112700748D01*
X135443597Y-112695999D01*
X135610134Y-112640814D01*
X135759456Y-112548712D01*
X135853119Y-112455048D01*
X135914442Y-112421564D01*
X135984134Y-112426548D01*
X136028481Y-112455048D01*
X136122144Y-112548712D01*
X136271466Y-112640814D01*
X136438003Y-112695999D01*
X136540791Y-112706500D01*
X137165808Y-112706499D01*
X137165816Y-112706498D01*
X137165819Y-112706498D01*
X137222102Y-112700748D01*
X137268597Y-112695999D01*
X137435134Y-112640814D01*
X137584456Y-112548712D01*
X137708512Y-112424656D01*
X137800614Y-112275334D01*
X137820111Y-112216493D01*
X137859884Y-112159051D01*
X137924400Y-112132228D01*
X137937817Y-112131500D01*
X138475148Y-112131500D01*
X138542187Y-112151185D01*
X138562829Y-112167819D01*
X139532690Y-113137681D01*
X139566175Y-113199004D01*
X139561191Y-113268696D01*
X139519319Y-113324629D01*
X139482130Y-113343675D01*
X139379620Y-113375837D01*
X139379605Y-113375844D01*
X139201700Y-113474589D01*
X139201695Y-113474592D01*
X139047306Y-113607132D01*
X139047304Y-113607134D01*
X138922754Y-113768037D01*
X138922753Y-113768040D01*
X138833140Y-113950728D01*
X138782137Y-114147714D01*
X138771831Y-114350936D01*
X138802642Y-114552063D01*
X138802645Y-114552075D01*
X138873311Y-114742881D01*
X138873313Y-114742884D01*
X138873314Y-114742887D01*
X138919205Y-114816513D01*
X138980945Y-114915567D01*
X138980947Y-114915569D01*
X138980948Y-114915571D01*
X139121141Y-115063053D01*
X139249544Y-115152424D01*
X139288149Y-115179294D01*
X139288150Y-115179294D01*
X139288151Y-115179295D01*
X139475142Y-115259540D01*
X139674459Y-115300500D01*
X139826943Y-115300500D01*
X139978639Y-115285074D01*
X140172779Y-115224162D01*
X140172780Y-115224161D01*
X140172788Y-115224159D01*
X140350702Y-115125409D01*
X140505095Y-114992866D01*
X140629648Y-114831958D01*
X140719260Y-114649271D01*
X140770263Y-114452285D01*
X140780569Y-114249064D01*
X140749756Y-114047929D01*
X140693833Y-113896932D01*
X140679088Y-113857118D01*
X140679087Y-113857117D01*
X140679086Y-113857113D01*
X140571452Y-113684429D01*
X140549877Y-113661732D01*
X140517956Y-113599581D01*
X140524704Y-113530038D01*
X140567979Y-113475183D01*
X140634041Y-113452432D01*
X140639751Y-113452300D01*
X141454364Y-113452300D01*
X141521403Y-113471985D01*
X141567158Y-113524789D01*
X141577102Y-113593947D01*
X141552420Y-113652200D01*
X141517612Y-113697168D01*
X141462752Y-113768041D01*
X141373140Y-113950728D01*
X141322137Y-114147714D01*
X141311831Y-114350936D01*
X141342642Y-114552063D01*
X141342645Y-114552075D01*
X141413311Y-114742881D01*
X141413313Y-114742884D01*
X141413314Y-114742887D01*
X141459205Y-114816513D01*
X141520945Y-114915567D01*
X141520947Y-114915569D01*
X141520948Y-114915571D01*
X141661141Y-115063053D01*
X141789544Y-115152424D01*
X141828149Y-115179294D01*
X141828150Y-115179294D01*
X141828151Y-115179295D01*
X142015142Y-115259540D01*
X142214459Y-115300500D01*
X142366943Y-115300500D01*
X142518639Y-115285074D01*
X142712779Y-115224162D01*
X142712780Y-115224161D01*
X142712788Y-115224159D01*
X142890702Y-115125409D01*
X143045095Y-114992866D01*
X143169648Y-114831958D01*
X143259260Y-114649271D01*
X143310263Y-114452285D01*
X143320569Y-114249064D01*
X143289756Y-114047929D01*
X143233833Y-113896932D01*
X143219088Y-113857118D01*
X143219087Y-113857117D01*
X143219086Y-113857113D01*
X143111452Y-113684429D01*
X143010911Y-113578661D01*
X142978991Y-113516511D01*
X142985739Y-113446968D01*
X143029014Y-113392113D01*
X143045082Y-113383394D01*
X143044892Y-113383047D01*
X143051726Y-113379289D01*
X143051727Y-113379287D01*
X143051732Y-113379286D01*
X143089449Y-113351882D01*
X143094305Y-113348692D01*
X143134420Y-113324970D01*
X143148589Y-113310799D01*
X143163379Y-113298168D01*
X143179587Y-113286394D01*
X143209299Y-113250476D01*
X143213212Y-113246176D01*
X143716571Y-112742818D01*
X143777895Y-112709333D01*
X143804253Y-112706499D01*
X143973002Y-112706499D01*
X143973008Y-112706499D01*
X144075797Y-112695999D01*
X144242334Y-112640814D01*
X144391656Y-112548712D01*
X144488307Y-112452059D01*
X144549631Y-112418575D01*
X144619323Y-112423559D01*
X144663670Y-112452060D01*
X145392985Y-113181375D01*
X145426470Y-113242698D01*
X145421486Y-113312390D01*
X145379614Y-113368323D01*
X145314150Y-113392740D01*
X145256404Y-113383007D01*
X145157258Y-113340460D01*
X144957941Y-113299500D01*
X144805458Y-113299500D01*
X144805457Y-113299500D01*
X144653760Y-113314925D01*
X144459620Y-113375837D01*
X144459605Y-113375844D01*
X144281700Y-113474589D01*
X144281695Y-113474592D01*
X144127306Y-113607132D01*
X144127304Y-113607134D01*
X144002754Y-113768037D01*
X144002753Y-113768040D01*
X143913140Y-113950728D01*
X143862137Y-114147714D01*
X143851831Y-114350936D01*
X143882642Y-114552063D01*
X143882645Y-114552075D01*
X143953311Y-114742881D01*
X143953313Y-114742884D01*
X143953314Y-114742887D01*
X143999205Y-114816513D01*
X144060945Y-114915567D01*
X144060947Y-114915569D01*
X144060948Y-114915571D01*
X144201141Y-115063053D01*
X144329544Y-115152424D01*
X144368149Y-115179294D01*
X144368150Y-115179294D01*
X144368151Y-115179295D01*
X144555142Y-115259540D01*
X144754459Y-115300500D01*
X144906943Y-115300500D01*
X145058639Y-115285074D01*
X145252779Y-115224162D01*
X145252780Y-115224161D01*
X145252788Y-115224159D01*
X145430702Y-115125409D01*
X145585095Y-114992866D01*
X145709648Y-114831958D01*
X145799260Y-114649271D01*
X145824961Y-114550003D01*
X145860820Y-114490041D01*
X145923406Y-114458982D01*
X145992849Y-114466690D01*
X146047101Y-114510719D01*
X146064777Y-114548994D01*
X146122294Y-114763655D01*
X146122296Y-114763659D01*
X146122297Y-114763663D01*
X146193131Y-114915567D01*
X146222165Y-114977830D01*
X146222167Y-114977834D01*
X146357701Y-115171395D01*
X146357706Y-115171402D01*
X146524797Y-115338493D01*
X146524803Y-115338498D01*
X146582325Y-115378775D01*
X146625950Y-115433351D01*
X146633144Y-115502850D01*
X146601622Y-115565205D01*
X146541392Y-115600619D01*
X146511522Y-115604350D01*
X130442369Y-115645766D01*
X130375279Y-115626254D01*
X130329388Y-115573568D01*
X130319266Y-115504435D01*
X130348127Y-115440805D01*
X130370922Y-115420194D01*
X130487601Y-115338495D01*
X130654695Y-115171401D01*
X130790235Y-114977830D01*
X130890103Y-114763663D01*
X130895672Y-114742881D01*
X130920754Y-114649271D01*
X130945004Y-114558765D01*
X130981367Y-114499107D01*
X131044214Y-114468577D01*
X131113590Y-114476871D01*
X131167468Y-114521356D01*
X131181059Y-114547794D01*
X131253311Y-114742880D01*
X131253312Y-114742883D01*
X131253314Y-114742887D01*
X131299205Y-114816513D01*
X131360945Y-114915567D01*
X131360947Y-114915569D01*
X131360948Y-114915571D01*
X131501141Y-115063053D01*
X131629544Y-115152424D01*
X131668149Y-115179294D01*
X131668150Y-115179294D01*
X131668151Y-115179295D01*
X131855142Y-115259540D01*
X132054459Y-115300500D01*
X132206943Y-115300500D01*
X132358639Y-115285074D01*
X132552779Y-115224162D01*
X132552780Y-115224161D01*
X132552788Y-115224159D01*
X132730702Y-115125409D01*
X132885095Y-114992866D01*
X133009648Y-114831958D01*
X133099260Y-114649271D01*
X133150263Y-114452285D01*
X133155403Y-114350936D01*
X133691831Y-114350936D01*
X133722642Y-114552063D01*
X133722645Y-114552075D01*
X133793311Y-114742881D01*
X133793313Y-114742884D01*
X133793314Y-114742887D01*
X133839205Y-114816513D01*
X133900945Y-114915567D01*
X133900947Y-114915569D01*
X133900948Y-114915571D01*
X134041141Y-115063053D01*
X134169544Y-115152424D01*
X134208149Y-115179294D01*
X134208150Y-115179294D01*
X134208151Y-115179295D01*
X134395142Y-115259540D01*
X134594459Y-115300500D01*
X134746943Y-115300500D01*
X134898639Y-115285074D01*
X135092779Y-115224162D01*
X135092780Y-115224161D01*
X135092788Y-115224159D01*
X135270702Y-115125409D01*
X135425095Y-114992866D01*
X135549648Y-114831958D01*
X135639260Y-114649271D01*
X135690263Y-114452285D01*
X135695403Y-114350936D01*
X136231831Y-114350936D01*
X136262642Y-114552063D01*
X136262645Y-114552075D01*
X136333311Y-114742881D01*
X136333313Y-114742884D01*
X136333314Y-114742887D01*
X136379205Y-114816513D01*
X136440945Y-114915567D01*
X136440947Y-114915569D01*
X136440948Y-114915571D01*
X136581141Y-115063053D01*
X136709544Y-115152424D01*
X136748149Y-115179294D01*
X136748150Y-115179294D01*
X136748151Y-115179295D01*
X136935142Y-115259540D01*
X137134459Y-115300500D01*
X137286943Y-115300500D01*
X137438639Y-115285074D01*
X137632779Y-115224162D01*
X137632780Y-115224161D01*
X137632788Y-115224159D01*
X137810702Y-115125409D01*
X137965095Y-114992866D01*
X138089648Y-114831958D01*
X138179260Y-114649271D01*
X138230263Y-114452285D01*
X138240569Y-114249064D01*
X138209756Y-114047929D01*
X138153833Y-113896932D01*
X138139088Y-113857118D01*
X138139087Y-113857117D01*
X138139086Y-113857113D01*
X138031452Y-113684429D01*
X137891259Y-113536947D01*
X137765633Y-113449509D01*
X137724250Y-113420705D01*
X137537256Y-113340459D01*
X137337941Y-113299500D01*
X137185458Y-113299500D01*
X137185457Y-113299500D01*
X137033760Y-113314925D01*
X136839620Y-113375837D01*
X136839605Y-113375844D01*
X136661700Y-113474589D01*
X136661695Y-113474592D01*
X136507306Y-113607132D01*
X136507304Y-113607134D01*
X136382754Y-113768037D01*
X136382753Y-113768040D01*
X136293140Y-113950728D01*
X136242137Y-114147714D01*
X136231831Y-114350936D01*
X135695403Y-114350936D01*
X135700569Y-114249064D01*
X135669756Y-114047929D01*
X135613833Y-113896932D01*
X135599088Y-113857118D01*
X135599087Y-113857117D01*
X135599086Y-113857113D01*
X135491452Y-113684429D01*
X135351259Y-113536947D01*
X135225633Y-113449509D01*
X135184250Y-113420705D01*
X134997256Y-113340459D01*
X134797941Y-113299500D01*
X134645458Y-113299500D01*
X134645457Y-113299500D01*
X134493760Y-113314925D01*
X134299620Y-113375837D01*
X134299605Y-113375844D01*
X134121700Y-113474589D01*
X134121695Y-113474592D01*
X133967306Y-113607132D01*
X133967304Y-113607134D01*
X133842754Y-113768037D01*
X133842753Y-113768040D01*
X133753140Y-113950728D01*
X133702137Y-114147714D01*
X133691831Y-114350936D01*
X133155403Y-114350936D01*
X133160569Y-114249064D01*
X133129756Y-114047929D01*
X133073833Y-113896932D01*
X133059088Y-113857118D01*
X133059087Y-113857117D01*
X133059086Y-113857113D01*
X132951452Y-113684429D01*
X132811259Y-113536947D01*
X132685633Y-113449509D01*
X132644250Y-113420705D01*
X132457256Y-113340459D01*
X132257941Y-113299500D01*
X132105458Y-113299500D01*
X132105457Y-113299500D01*
X131953760Y-113314925D01*
X131753976Y-113377608D01*
X131684118Y-113378895D01*
X131624654Y-113342210D01*
X131594463Y-113279200D01*
X131603131Y-113209870D01*
X131629170Y-113171618D01*
X132632970Y-112167819D01*
X132694294Y-112134334D01*
X132720652Y-112131500D01*
X133943783Y-112131500D01*
X134010822Y-112151185D01*
G37*
%TD.AperFunction*%
M02*
